# OBJ generated by ONSHAPE BY PTC INC, 1.208 Units = meters
mtllib Part Studio 1 - Part 1.mtl
g Part 1
v -0.0149857 -0.00314991 0 
v -0.015 -0.00249562 0 
v -0.015 -0.00249562 0.025 
v -0.0149429 -0.00380295 0 
v -0.0149857 -0.00314991 0.025 
v -0.0148717 -0.00445351 0 
v -0.0149429 -0.00380295 0.025 
v -0.0147721 -0.00510034 0 
v -0.0148717 -0.00445351 0.025 
v -0.0146444 -0.00574221 0 
v -0.0147721 -0.00510034 0.025 
v -0.0144889 -0.0063779 0 
v -0.0146444 -0.00574221 0.025 
v -0.0143058 -0.0070062 0 
v -0.0144889 -0.0063779 0.025 
v -0.0140954 -0.00762592 0 
v -0.0143058 -0.0070062 0.025 
v -0.0138582 -0.00823587 0 
v -0.0140954 -0.00762592 0.025 
v -0.0135946 -0.00883489 0 
v -0.0138582 -0.00823587 0.025 
v -0.0133052 -0.00942185 0 
v -0.0135946 -0.00883489 0.025 
v -0.0129904 -0.00999562 0 
v -0.0133052 -0.00942185 0.025 
v -0.0126509 -0.0105551 0 
v -0.0129904 -0.00999562 0.025 
v -0.0122873 -0.0110993 0 
v -0.0126509 -0.0105551 0.025 
v -0.0119003 -0.011627 0 
v -0.0122873 -0.0110993 0.025 
v -0.0114907 -0.0121374 0 
v -0.0119003 -0.011627 0.025 
v -0.0110592 -0.0126295 0 
v -0.0114907 -0.0121374 0.025 
v -0.0106066 -0.0131022 0 
v -0.0110592 -0.0126295 0.025 
v -0.0101339 -0.0135548 0 
v -0.0106066 -0.0131022 0.025 
v -0.00964181 -0.0139863 0 
v -0.0101339 -0.0135548 0.025 
v -0.00913142 -0.0143959 0 
v -0.00964181 -0.0139863 0.025 
v -0.00860365 -0.0147829 0 
v -0.00913142 -0.0143959 0.025 
v -0.00805949 -0.0151465 0 
v -0.00860365 -0.0147829 0.025 
v -0.0075 -0.015486 0 
v -0.00805949 -0.0151465 0.025 
v -0.00692623 -0.0158008 0 
v -0.0075 -0.015486 0.025 
v -0.00633927 -0.0160902 0 
v -0.00692623 -0.0158008 0.025 
v -0.00574025 -0.0163538 0 
v -0.00633927 -0.0160902 0.025 
v -0.0051303 -0.016591 0 
v -0.00574025 -0.0163538 0.025 
v -0.00451059 -0.0168014 0 
v -0.0051303 -0.016591 0.025 
v -0.00388229 -0.0169845 0 
v -0.00451059 -0.0168014 0.025 
v -0.00324659 -0.0171401 0 
v -0.00388229 -0.0169845 0.025 
v -0.00260472 -0.0172677 0 
v -0.00324659 -0.0171401 0.025 
v -0.00195789 -0.0173673 0 
v -0.00260472 -0.0172677 0.025 
v -0.00130734 -0.0174385 0 
v -0.00195789 -0.0173673 0.025 
v -0.000654291 -0.0174813 0 
v -0.00130734 -0.0174385 0.025 
v 2.75546e-18 -0.0174956 0 
v -0.000654291 -0.0174813 0.025 
v 0.000654291 -0.0174813 0 
v 2.75546e-18 -0.0174956 0.025 
v 0.00130734 -0.0174385 0 
v 0.000654291 -0.0174813 0.025 
v 0.00195789 -0.0173673 0 
v 0.00130734 -0.0174385 0.025 
v 0.00260472 -0.0172677 0 
v 0.00195789 -0.0173673 0.025 
v 0.00324659 -0.0171401 0 
v 0.00260472 -0.0172677 0.025 
v 0.00388229 -0.0169845 0 
v 0.00324659 -0.0171401 0.025 
v 0.00451059 -0.0168014 0 
v 0.00388229 -0.0169845 0.025 
v 0.0051303 -0.016591 0 
v 0.00451059 -0.0168014 0.025 
v 0.00574025 -0.0163538 0 
v 0.0051303 -0.016591 0.025 
v 0.00633927 -0.0160902 0 
v 0.00574025 -0.0163538 0.025 
v 0.00692623 -0.0158008 0 
v 0.00633927 -0.0160902 0.025 
v 0.0075 -0.015486 0 
v 0.00692623 -0.0158008 0.025 
v 0.00805949 -0.0151465 0 
v 0.0075 -0.015486 0.025 
v 0.00860365 -0.0147829 0 
v 0.00805949 -0.0151465 0.025 
v 0.00913142 -0.0143959 0 
v 0.00860365 -0.0147829 0.025 
v 0.00964181 -0.0139863 0 
v 0.00913142 -0.0143959 0.025 
v 0.0101339 -0.0135548 0 
v 0.00964181 -0.0139863 0.025 
v 0.0106066 -0.0131022 0 
v 0.0101339 -0.0135548 0.025 
v 0.0110592 -0.0126295 0 
v 0.0106066 -0.0131022 0.025 
v 0.0114907 -0.0121374 0 
v 0.0110592 -0.0126295 0.025 
v 0.0119003 -0.011627 0 
v 0.0114907 -0.0121374 0.025 
v 0.0122873 -0.0110993 0 
v 0.0119003 -0.011627 0.025 
v 0.0126509 -0.0105551 0 
v 0.0122873 -0.0110993 0.025 
v 0.0129904 -0.00999562 0 
v 0.0126509 -0.0105551 0.025 
v 0.0133052 -0.00942185 0 
v 0.0129904 -0.00999562 0.025 
v 0.0135946 -0.00883489 0 
v 0.0133052 -0.00942185 0.025 
v 0.0138582 -0.00823587 0 
v 0.0135946 -0.00883489 0.025 
v 0.0140954 -0.00762592 0 
v 0.0138582 -0.00823587 0.025 
v 0.0143058 -0.0070062 0 
v 0.0140954 -0.00762592 0.025 
v 0.0144889 -0.0063779 0 
v 0.0143058 -0.0070062 0.025 
v 0.0146444 -0.00574221 0 
v 0.0144889 -0.0063779 0.025 
v 0.0147721 -0.00510034 0 
v 0.0146444 -0.00574221 0.025 
v 0.0148717 -0.00445351 0 
v 0.0147721 -0.00510034 0.025 
v 0.0149429 -0.00380295 0 
v 0.0148717 -0.00445351 0.025 
v 0.0149857 -0.00314991 0 
v 0.0149429 -0.00380295 0.025 
v 0.015 -0.00249562 0 
v 0.0149857 -0.00314991 0.025 
v 0.0149857 -0.00184133 0 
v 0.015 -0.00249562 0.025 
v 0.0149429 -0.00118828 0 
v 0.0149857 -0.00184133 0.025 
v 0.0148717 -0.000537725 0 
v 0.0149429 -0.00118828 0.025 
v 0.0147721 0.000109105 0 
v 0.0148717 -0.000537725 0.025 
v 0.0146444 0.000750976 0 
v 0.0147721 0.000109105 0.025 
v 0.0144889 0.00138667 0 
v 0.0146444 0.000750976 0.025 
v 0.0143058 0.00201497 0 
v 0.0144889 0.00138667 0.025 
v 0.0140954 0.00263468 0 
v 0.0143058 0.00201497 0.025 
v 0.0138582 0.00324463 0 
v 0.0140954 0.00263468 0.025 
v 0.0135946 0.00384366 0 
v 0.0138582 0.00324463 0.025 
v 0.0133052 0.00443061 0 
v 0.0135946 0.00384366 0.025 
v 0.0129904 0.00500438 0 
v 0.0133052 0.00443061 0.025 
v 0.0126509 0.00556388 0 
v 0.0129904 0.00500438 0.025 
v 0.0122873 0.00610803 0 
v 0.0126509 0.00556388 0.025 
v 0.0119003 0.0066358 0 
v 0.0122873 0.00610803 0.025 
v 0.0114907 0.0071462 0 
v 0.0119003 0.0066358 0.025 
v 0.0110592 0.00763824 0 
v 0.0114907 0.0071462 0.025 
v 0.0106066 0.00811098 0 
v 0.0110592 0.00763824 0.025 
v 0.0101339 0.00856354 0 
v 0.0106066 0.00811098 0.025 
v 0.00964181 0.00899505 0 
v 0.0101339 0.00856354 0.025 
v 0.00913142 0.00940468 0 
v 0.00964181 0.00899505 0.025 
v 0.00860365 0.00979166 0 
v 0.00913142 0.00940468 0.025 
v 0.00805949 0.0101553 0 
v 0.00860365 0.00979166 0.025 
v 0.0075 0.0104948 0 
v 0.00805949 0.0101553 0.025 
v 0.00692623 0.0108095 0 
v 0.0075 0.0104948 0.025 
v 0.00633927 0.011099 0 
v 0.00692623 0.0108095 0.025 
v 0.00574025 0.0113626 0 
v 0.00633927 0.011099 0.025 
v 0.0051303 0.0115998 0 
v 0.00574025 0.0113626 0.025 
v 0.00451059 0.0118101 0 
v 0.0051303 0.0115998 0.025 
v 0.00388229 0.0119933 0 
v 0.00451059 0.0118101 0.025 
v 0.00324659 0.0121488 0 
v 0.00388229 0.0119933 0.025 
v 0.00260472 0.0122765 0 
v 0.00324659 0.0121488 0.025 
v 0.00195789 0.0123761 0 
v 0.00260472 0.0122765 0.025 
v 0.00130734 0.0124473 0 
v 0.00195789 0.0123761 0.025 
v 0.000654291 0.0124901 0 
v 0.00130734 0.0124473 0.025 
v -9.18485e-19 0.0125044 0 
v 0.000654291 0.0124901 0.025 
v -0.000654291 0.0124901 0 
v -9.18485e-19 0.0125044 0.025 
v -0.00130734 0.0124473 0 
v -0.000654291 0.0124901 0.025 
v -0.00195789 0.0123761 0 
v -0.00130734 0.0124473 0.025 
v -0.00260472 0.0122765 0 
v -0.00195789 0.0123761 0.025 
v -0.00324659 0.0121488 0 
v -0.00260472 0.0122765 0.025 
v -0.00388229 0.0119933 0 
v -0.00324659 0.0121488 0.025 
v -0.00451059 0.0118101 0 
v -0.00388229 0.0119933 0.025 
v -0.0051303 0.0115998 0 
v -0.00451059 0.0118101 0.025 
v -0.00574025 0.0113626 0 
v -0.0051303 0.0115998 0.025 
v -0.00633927 0.011099 0 
v -0.00574025 0.0113626 0.025 
v -0.00692623 0.0108095 0 
v -0.00633927 0.011099 0.025 
v -0.0075 0.0104948 0 
v -0.00692623 0.0108095 0.025 
v -0.00805949 0.0101553 0 
v -0.0075 0.0104948 0.025 
v -0.00860365 0.00979166 0 
v -0.00805949 0.0101553 0.025 
v -0.00913142 0.00940468 0 
v -0.00860365 0.00979166 0.025 
v -0.00964181 0.00899505 0 
v -0.00913142 0.00940468 0.025 
v -0.0101339 0.00856354 0 
v -0.00964181 0.00899505 0.025 
v -0.0106066 0.00811098 0 
v -0.0101339 0.00856354 0.025 
v -0.0110592 0.00763824 0 
v -0.0106066 0.00811098 0.025 
v -0.0114907 0.0071462 0 
v -0.0110592 0.00763824 0.025 
v -0.0119003 0.0066358 0 
v -0.0114907 0.0071462 0.025 
v -0.0122873 0.00610803 0 
v -0.0119003 0.0066358 0.025 
v -0.0126509 0.00556388 0 
v -0.0122873 0.00610803 0.025 
v -0.0129904 0.00500438 0 
v -0.0126509 0.00556388 0.025 
v -0.0133052 0.00443061 0 
v -0.0129904 0.00500438 0.025 
v -0.0135946 0.00384366 0 
v -0.0133052 0.00443061 0.025 
v -0.0138582 0.00324463 0 
v -0.0135946 0.00384366 0.025 
v -0.0140954 0.00263468 0 
v -0.0138582 0.00324463 0.025 
v -0.0143058 0.00201497 0 
v -0.0140954 0.00263468 0.025 
v -0.0144889 0.00138667 0 
v -0.0143058 0.00201497 0.025 
v -0.0146444 0.000750976 0 
v -0.0144889 0.00138667 0.025 
v -0.0147721 0.000109105 0 
v -0.0146444 0.000750976 0.025 
v -0.0148717 -0.000537725 0 
v -0.0147721 0.000109105 0.025 
v -0.0149429 -0.00118828 0 
v -0.0148717 -0.000537725 0.025 
v -0.0149857 -0.00184133 0 
v -0.0149429 -0.00118828 0.025 
v -0.0149857 -0.00184133 0.025 
v -0.0244074 -0.00790661 0.025 
v -0.0241481 -0.00896609 0.025 
v -0.0246202 0.00184559 0.025 
v -0.0247861 0.000767537 0.025 
v -0.025 -0.00249562 0.025 
v -0.0249762 -0.0035861 0.025 
v -0.0246202 -0.00683682 0.025 
v -0.0216506 0.0100044 0.025 
v -0.0221753 0.0090481 0.025 
v -0.0249049 -0.000316724 0.025 
v -0.0249049 -0.00467451 0.025 
v -0.0247861 -0.00575877 0.025 
v -0.0226577 0.00806984 0.025 
v -0.023097 0.00707147 0.025 
v -0.0234923 0.00605489 0.025 
v -0.0244074 0.00291537 0.025 
v -0.0226577 -0.0130611 0.025 
v -0.0221753 -0.0140393 0.025 
v -0.0216506 -0.0149956 0.025 
v -0.0210848 -0.0159281 0.025 
v -0.0238429 0.00502203 0.025 
v -0.0241481 0.00397486 0.025 
v -0.0249762 -0.00140513 0.025 
v -0.0238429 -0.0100133 0.025 
v -0.0234923 -0.0110461 0.025 
v -0.023097 -0.0120627 0.025 
v -0.0198338 -0.0177147 0.025 
v -0.0191511 -0.0185653 0.025 
v 0.0244074 0.00291537 0.025 
v 0.0241481 0.00397486 0.025 
v -0.0204788 0.0118438 0.025 
v -0.0210848 0.0109369 0.025 
v -0.0184319 -0.0193854 0.025 
v -0.0176777 -0.0201733 0.025 
v -0.0168898 -0.0209276 0.025 
v -0.0160697 -0.0216467 0.025 
v -0.015219 -0.0223295 0.025 
v -0.0143394 -0.0229744 0.025 
v 0.0246202 0.00184559 0.025 
v -0.0168898 0.0159363 0.025 
v -0.0176777 0.0151821 0.025 
v -0.0184319 0.0143941 0.025 
v -0.0191511 0.0135741 0.025 
v -0.0198338 0.0127234 0.025 
v -0.0204788 -0.016835 0.025 
v -0.00956709 -0.0255926 0.025 
v -0.0085505 -0.0259879 0.025 
v 0.025 -0.00249562 0.025 
v 0.0249762 -0.00140513 0.025 
v 0.0249049 -0.000316724 0.025 
v 0.0247861 0.000767537 0.025 
v 0.023097 0.00707147 0.025 
v 0.0226577 0.00806984 0.025 
v 0.0221753 0.0090481 0.025 
v 0.0216506 0.0100044 0.025 
v 0.0210848 0.0109369 0.025 
v 0.0204788 0.0118438 0.025 
v 0.0198338 0.0127234 0.025 
v 0.0160697 0.0166555 0.025 
v 0.015219 0.0173382 0.025 
v 0.0143394 0.0179832 0.025 
v 0.0134325 0.0185892 0.025 
v 0.00956709 0.0206014 0.025 
v 0.0085505 0.0209967 0.025 
v 0.0043412 0.0221246 0.025 
v 0.00326315 0.0222905 0.025 
v -0.00647048 0.0216525 0.025 
v -0.00751764 0.0213473 0.025 
v -0.0105655 0.0201621 0.025 
v -0.0115437 0.0196797 0.025 
v -0.0125 0.019155 0.025 
v -0.0134325 0.0185892 0.025 
v -0.0160697 0.0166555 0.025 
v -0.0134325 -0.0235804 0.025 
v -0.0125 -0.0241463 0.025 
v -0.0115437 -0.0246709 0.025 
v -0.0105655 -0.0251533 0.025 
v -0.00751764 -0.0263385 0.025 
v -0.00647048 -0.0266438 0.025 
v -0.00541099 -0.026903 0.025 
v 0.0238429 0.00502203 0.025 
v 0.0234923 0.00605489 0.025 
v 0.0176777 0.0151821 0.025 
v 0.0168898 0.0159363 0.025 
v 0.00751764 0.0213473 0.025 
v 0.00647048 0.0216525 0.025 
v 0.00541099 0.0219118 0.025 
v 0.00217889 0.0224092 0.025 
v -0.0043412 0.0221246 0.025 
v -0.00541099 0.0219118 0.025 
v -0.0085505 0.0209967 0.025 
v -0.0143394 0.0179832 0.025 
v -0.015219 0.0173382 0.025 
v 0.0249049 -0.00467451 0.025 
v 0.0249762 -0.0035861 0.025 
v 0.0191511 0.0135741 0.025 
v 0.0184319 0.0143941 0.025 
v 0.00109048 0.0224806 0.025 
v -1.53081e-18 0.0225044 0.025 
v -0.00109048 0.0224806 0.025 
v -0.00326315 0.0222905 0.025 
v -0.00956709 0.0206014 0.025 
v -0.0043412 -0.0271158 0.025 
v -0.00326315 -0.0272817 0.025 
v 0.0191511 -0.0185653 0.025 
v 0.0198338 -0.0177147 0.025 
v 0.0244074 -0.00790661 0.025 
v 0.0246202 -0.00683682 0.025 
v 0.0247861 -0.00575877 0.025 
v 0.0125 0.019155 0.025 
v 0.0115437 0.0196797 0.025 
v 0.0105655 0.0201621 0.025 
v -0.00217889 0.0224092 0.025 
v -0.00217889 -0.0274005 0.025 
v 0.0184319 -0.0193854 0.025 
v 0.0204788 -0.016835 0.025 
v 0.0210848 -0.0159281 0.025 
v 0.0221753 -0.0140393 0.025 
v 0.0226577 -0.0130611 0.025 
v 0.023097 -0.0120627 0.025 
v 0.0234923 -0.0110461 0.025 
v 0.0238429 -0.0100133 0.025 
v 0.0241481 -0.00896609 0.025 
v -0.00109048 -0.0274718 0.025 
v 0.00326315 -0.0272817 0.025 
v 0.0043412 -0.0271158 0.025 
v 0.00541099 -0.026903 0.025 
v 0.00647048 -0.0266438 0.025 
v 0.00956709 -0.0255926 0.025 
v 0.0105655 -0.0251533 0.025 
v 0.0216506 -0.0149956 0.025 
v 4.59243e-18 -0.0274956 0.025 
v 0.00109048 -0.0274718 0.025 
v 0.00217889 -0.0274005 0.025 
v 0.00751764 -0.0263385 0.025 
v 0.0085505 -0.0259879 0.025 
v 0.0115437 -0.0246709 0.025 
v 0.0125 -0.0241463 0.025 
v 0.0134325 -0.0235804 0.025 
v 0.0143394 -0.0229744 0.025 
v 0.015219 -0.0223295 0.025 
v 0.0168898 -0.0209276 0.025 
v 0.0176777 -0.0201733 0.025 
v 0.0160697 -0.0216467 0.025 
v -0.025 -0.00249562 0 
v -0.0249762 -0.00140513 0 
v -0.0249049 -0.000316724 0 
v -0.0247861 0.000767537 0 
v -0.0246202 0.00184559 0 
v -0.0244074 0.00291537 0 
v -0.0241481 0.00397486 0 
v -0.0238429 0.00502203 0 
v -0.0234923 0.00605489 0 
v -0.023097 0.00707147 0 
v -0.0226577 0.00806984 0 
v -0.0221753 0.0090481 0 
v -0.0216506 0.0100044 0 
v -0.0210848 0.0109369 0 
v -0.0204788 0.0118438 0 
v -0.0198338 0.0127234 0 
v -0.0191511 0.0135741 0 
v -0.0184319 0.0143941 0 
v -0.0176777 0.0151821 0 
v -0.0168898 0.0159363 0 
v -0.0160697 0.0166555 0 
v -0.015219 0.0173382 0 
v -0.0143394 0.0179832 0 
v -0.0134325 0.0185892 0 
v -0.0125 0.019155 0 
v -0.0115437 0.0196797 0 
v -0.0105655 0.0201621 0 
v -0.00956709 0.0206014 0 
v -0.0085505 0.0209967 0 
v -0.00751764 0.0213473 0 
v -0.00647048 0.0216525 0 
v -0.00541099 0.0219118 0 
v -0.0043412 0.0221246 0 
v -0.00326315 0.0222905 0 
v -0.00217889 0.0224092 0 
v -0.00109048 0.0224806 0 
v -1.53081e-18 0.0225044 0 
v 0.00109048 0.0224806 0 
v 0.00217889 0.0224092 0 
v 0.00326315 0.0222905 0 
v 0.0043412 0.0221246 0 
v 0.00541099 0.0219118 0 
v 0.00647048 0.0216525 0 
v 0.00751764 0.0213473 0 
v 0.0085505 0.0209967 0 
v 0.00956709 0.0206014 0 
v 0.0105655 0.0201621 0 
v 0.0115437 0.0196797 0 
v 0.0125 0.019155 0 
v 0.0134325 0.0185892 0 
v 0.0143394 0.0179832 0 
v 0.015219 0.0173382 0 
v 0.0160697 0.0166555 0 
v 0.0168898 0.0159363 0 
v 0.0176777 0.0151821 0 
v 0.0184319 0.0143941 0 
v 0.0191511 0.0135741 0 
v 0.0198338 0.0127234 0 
v 0.0204788 0.0118438 0 
v 0.0210848 0.0109369 0 
v 0.0216506 0.0100044 0 
v 0.0221753 0.0090481 0 
v 0.0226577 0.00806984 0 
v 0.023097 0.00707147 0 
v 0.0234923 0.00605489 0 
v 0.0238429 0.00502203 0 
v 0.0241481 0.00397486 0 
v 0.0244074 0.00291537 0 
v 0.0246202 0.00184559 0 
v 0.0247861 0.000767537 0 
v 0.0249049 -0.000316724 0 
v 0.0249762 -0.00140513 0 
v 0.025 -0.00249562 0 
v 0.0249762 -0.0035861 0 
v 0.0249049 -0.00467451 0 
v 0.0247861 -0.00575877 0 
v 0.0246202 -0.00683682 0 
v 0.0244074 -0.00790661 0 
v 0.0241481 -0.00896609 0 
v 0.0238429 -0.0100133 0 
v 0.0234923 -0.0110461 0 
v 0.023097 -0.0120627 0 
v 0.0226577 -0.0130611 0 
v 0.0221753 -0.0140393 0 
v 0.0216506 -0.0149956 0 
v 0.0210848 -0.0159281 0 
v 0.0204788 -0.016835 0 
v 0.0198338 -0.0177147 0 
v 0.0191511 -0.0185653 0 
v 0.0184319 -0.0193854 0 
v 0.0176777 -0.0201733 0 
v 0.0168898 -0.0209276 0 
v 0.0160697 -0.0216467 0 
v 0.015219 -0.0223295 0 
v 0.0143394 -0.0229744 0 
v 0.0134325 -0.0235804 0 
v 0.0125 -0.0241463 0 
v 0.0115437 -0.0246709 0 
v 0.0105655 -0.0251533 0 
v 0.00956709 -0.0255926 0 
v 0.0085505 -0.0259879 0 
v 0.00751764 -0.0263385 0 
v 0.00647048 -0.0266438 0 
v 0.00541099 -0.026903 0 
v 0.0043412 -0.0271158 0 
v 0.00326315 -0.0272817 0 
v 0.00217889 -0.0274005 0 
v 0.00109048 -0.0274718 0 
v 4.59243e-18 -0.0274956 0 
v -0.00109048 -0.0274718 0 
v -0.00217889 -0.0274005 0 
v -0.00326315 -0.0272817 0 
v -0.0043412 -0.0271158 0 
v -0.00541099 -0.026903 0 
v -0.00647048 -0.0266438 0 
v -0.00751764 -0.0263385 0 
v -0.0085505 -0.0259879 0 
v -0.00956709 -0.0255926 0 
v -0.0105655 -0.0251533 0 
v -0.0115437 -0.0246709 0 
v -0.0125 -0.0241463 0 
v -0.0134325 -0.0235804 0 
v -0.0143394 -0.0229744 0 
v -0.015219 -0.0223295 0 
v -0.0160697 -0.0216467 0 
v -0.0168898 -0.0209276 0 
v -0.0176777 -0.0201733 0 
v -0.0184319 -0.0193854 0 
v -0.0191511 -0.0185653 0 
v -0.0198338 -0.0177147 0 
v -0.0204788 -0.016835 0 
v -0.0210848 -0.0159281 0 
v -0.0216506 -0.0149956 0 
v -0.0221753 -0.0140393 0 
v -0.0226577 -0.0130611 0 
v -0.023097 -0.0120627 0 
v -0.0234923 -0.0110461 0 
v -0.0238429 -0.0100133 0 
v -0.0241481 -0.00896609 0 
v -0.0244074 -0.00790661 0 
v -0.0246202 -0.00683682 0 
v -0.0247861 -0.00575877 0 
v -0.0249049 -0.00467451 0 
v -0.0249762 -0.0035861 0 
vn 0.999048 0.0436194 0 
vn 1 2.44929e-16 0 
vn 0.996195 0.0871557 0 
vn 0.999048 0.0436194 0 
vn 0.991445 0.130526 0 
vn 0.996195 0.0871557 0 
vn 0.984808 0.173648 0 
vn 0.991445 0.130526 0 
vn 0.976296 0.21644 0 
vn 0.984808 0.173648 0 
vn 0.965926 0.258819 0 
vn 0.976296 0.21644 0 
vn 0.953717 0.300706 0 
vn 0.965926 0.258819 0 
vn 0.939693 0.34202 0 
vn 0.953717 0.300706 0 
vn 0.92388 0.382683 0 
vn 0.939693 0.34202 0 
vn 0.906308 0.422618 0 
vn 0.92388 0.382683 0 
vn 0.887011 0.461749 0 
vn 0.906308 0.422618 0 
vn 0.866025 0.5 0 
vn 0.887011 0.461749 0 
vn 0.843391 0.5373 0 
vn 0.866025 0.5 0 
vn 0.819152 0.573576 0 
vn 0.843391 0.5373 0 
vn 0.793353 0.608761 0 
vn 0.819152 0.573576 0 
vn 0.766044 0.642788 0 
vn 0.793353 0.608761 0 
vn 0.737277 0.67559 0 
vn 0.766044 0.642788 0 
vn 0.707107 0.707107 0 
vn 0.737277 0.67559 0 
vn 0.67559 0.737277 0 
vn 0.707107 0.707107 0 
vn 0.642788 0.766044 0 
vn 0.67559 0.737277 0 
vn 0.608761 0.793353 0 
vn 0.642788 0.766044 0 
vn 0.573576 0.819152 0 
vn 0.608761 0.793353 0 
vn 0.5373 0.843391 0 
vn 0.573576 0.819152 0 
vn 0.5 0.866025 0 
vn 0.5373 0.843391 0 
vn 0.461749 0.887011 0 
vn 0.5 0.866025 0 
vn 0.422618 0.906308 0 
vn 0.461749 0.887011 0 
vn 0.382683 0.92388 0 
vn 0.422618 0.906308 0 
vn 0.34202 0.939693 0 
vn 0.382683 0.92388 0 
vn 0.300706 0.953717 0 
vn 0.34202 0.939693 0 
vn 0.258819 0.965926 0 
vn 0.300706 0.953717 0 
vn 0.21644 0.976296 0 
vn 0.258819 0.965926 0 
vn 0.173648 0.984808 0 
vn 0.21644 0.976296 0 
vn 0.130526 0.991445 0 
vn 0.173648 0.984808 0 
vn 0.0871557 0.996195 0 
vn 0.130526 0.991445 0 
vn 0.0436194 0.999048 0 
vn 0.0871557 0.996195 0 
vn -1.83697e-16 1 0 
vn 0.0436194 0.999048 0 
vn -0.0436194 0.999048 0 
vn -1.83697e-16 1 0 
vn -0.0871557 0.996195 0 
vn -0.0436194 0.999048 0 
vn -0.130526 0.991445 0 
vn -0.0871557 0.996195 0 
vn -0.173648 0.984808 0 
vn -0.130526 0.991445 0 
vn -0.21644 0.976296 0 
vn -0.173648 0.984808 0 
vn -0.258819 0.965926 0 
vn -0.21644 0.976296 0 
vn -0.300706 0.953717 0 
vn -0.258819 0.965926 0 
vn -0.34202 0.939693 0 
vn -0.300706 0.953717 0 
vn -0.382683 0.92388 0 
vn -0.34202 0.939693 0 
vn -0.422618 0.906308 0 
vn -0.382683 0.92388 0 
vn -0.461749 0.887011 0 
vn -0.422618 0.906308 0 
vn -0.5 0.866025 0 
vn -0.461749 0.887011 0 
vn -0.5373 0.843391 0 
vn -0.5 0.866025 0 
vn -0.573576 0.819152 0 
vn -0.5373 0.843391 0 
vn -0.608761 0.793353 0 
vn -0.573576 0.819152 0 
vn -0.642788 0.766044 0 
vn -0.608761 0.793353 0 
vn -0.67559 0.737277 0 
vn -0.642788 0.766044 0 
vn -0.707107 0.707107 0 
vn -0.67559 0.737277 0 
vn -0.737277 0.67559 0 
vn -0.707107 0.707107 0 
vn -0.766044 0.642788 0 
vn -0.737277 0.67559 0 
vn -0.793353 0.608761 0 
vn -0.766044 0.642788 0 
vn -0.819152 0.573576 0 
vn -0.793353 0.608761 0 
vn -0.843391 0.5373 0 
vn -0.819152 0.573576 0 
vn -0.866025 0.5 0 
vn -0.843391 0.5373 0 
vn -0.887011 0.461749 0 
vn -0.866025 0.5 0 
vn -0.906308 0.422618 0 
vn -0.887011 0.461749 0 
vn -0.92388 0.382683 0 
vn -0.906308 0.422618 0 
vn -0.939693 0.34202 0 
vn -0.92388 0.382683 0 
vn -0.953717 0.300706 0 
vn -0.939693 0.34202 0 
vn -0.965926 0.258819 0 
vn -0.953717 0.300706 0 
vn -0.976296 0.21644 0 
vn -0.965926 0.258819 0 
vn -0.984808 0.173648 0 
vn -0.976296 0.21644 0 
vn -0.991445 0.130526 0 
vn -0.984808 0.173648 0 
vn -0.996195 0.0871557 0 
vn -0.991445 0.130526 0 
vn -0.999048 0.0436194 0 
vn -0.996195 0.0871557 0 
vn -1 -1.22465e-16 0 
vn -0.999048 0.0436194 0 
vn -0.999048 -0.0436194 0 
vn -1 -1.22465e-16 0 
vn -0.996195 -0.0871557 0 
vn -0.999048 -0.0436194 0 
vn -0.991445 -0.130526 0 
vn -0.996195 -0.0871557 0 
vn -0.984808 -0.173648 0 
vn -0.991445 -0.130526 0 
vn -0.976296 -0.21644 0 
vn -0.984808 -0.173648 0 
vn -0.965926 -0.258819 0 
vn -0.976296 -0.21644 0 
vn -0.953717 -0.300706 0 
vn -0.965926 -0.258819 0 
vn -0.939693 -0.34202 0 
vn -0.953717 -0.300706 0 
vn -0.92388 -0.382683 0 
vn -0.939693 -0.34202 0 
vn -0.906308 -0.422618 0 
vn -0.92388 -0.382683 0 
vn -0.887011 -0.461749 0 
vn -0.906308 -0.422618 0 
vn -0.866025 -0.5 0 
vn -0.887011 -0.461749 0 
vn -0.843391 -0.5373 0 
vn -0.866025 -0.5 0 
vn -0.819152 -0.573576 0 
vn -0.843391 -0.5373 0 
vn -0.793353 -0.608761 0 
vn -0.819152 -0.573576 0 
vn -0.766044 -0.642788 0 
vn -0.793353 -0.608761 0 
vn -0.737277 -0.67559 0 
vn -0.766044 -0.642788 0 
vn -0.707107 -0.707107 0 
vn -0.737277 -0.67559 0 
vn -0.67559 -0.737277 0 
vn -0.707107 -0.707107 0 
vn -0.642788 -0.766044 0 
vn -0.67559 -0.737277 0 
vn -0.608761 -0.793353 0 
vn -0.642788 -0.766044 0 
vn -0.573576 -0.819152 0 
vn -0.608761 -0.793353 0 
vn -0.5373 -0.843391 0 
vn -0.573576 -0.819152 0 
vn -0.5 -0.866025 0 
vn -0.5373 -0.843391 0 
vn -0.461749 -0.887011 0 
vn -0.5 -0.866025 0 
vn -0.422618 -0.906308 0 
vn -0.461749 -0.887011 0 
vn -0.382683 -0.92388 0 
vn -0.422618 -0.906308 0 
vn -0.34202 -0.939693 0 
vn -0.382683 -0.92388 0 
vn -0.300706 -0.953717 0 
vn -0.34202 -0.939693 0 
vn -0.258819 -0.965926 0 
vn -0.300706 -0.953717 0 
vn -0.21644 -0.976296 0 
vn -0.258819 -0.965926 0 
vn -0.173648 -0.984808 0 
vn -0.21644 -0.976296 0 
vn -0.130526 -0.991445 0 
vn -0.173648 -0.984808 0 
vn -0.0871557 -0.996195 0 
vn -0.130526 -0.991445 0 
vn -0.0436194 -0.999048 0 
vn -0.0871557 -0.996195 0 
vn 6.12323e-17 -1 0 
vn -0.0436194 -0.999048 0 
vn 0.0436194 -0.999048 0 
vn 6.12323e-17 -1 0 
vn 0.0871557 -0.996195 0 
vn 0.0436194 -0.999048 0 
vn 0.130526 -0.991445 0 
vn 0.0871557 -0.996195 0 
vn 0.173648 -0.984808 0 
vn 0.130526 -0.991445 0 
vn 0.21644 -0.976296 0 
vn 0.173648 -0.984808 0 
vn 0.258819 -0.965926 0 
vn 0.21644 -0.976296 0 
vn 0.300706 -0.953717 0 
vn 0.258819 -0.965926 0 
vn 0.34202 -0.939693 0 
vn 0.300706 -0.953717 0 
vn 0.382683 -0.92388 0 
vn 0.34202 -0.939693 0 
vn 0.422618 -0.906308 0 
vn 0.382683 -0.92388 0 
vn 0.461749 -0.887011 0 
vn 0.422618 -0.906308 0 
vn 0.5 -0.866025 0 
vn 0.461749 -0.887011 0 
vn 0.5373 -0.843391 0 
vn 0.5 -0.866025 0 
vn 0.573576 -0.819152 0 
vn 0.5373 -0.843391 0 
vn 0.608761 -0.793353 0 
vn 0.573576 -0.819152 0 
vn 0.642788 -0.766044 0 
vn 0.608761 -0.793353 0 
vn 0.67559 -0.737277 0 
vn 0.642788 -0.766044 0 
vn 0.707107 -0.707107 0 
vn 0.67559 -0.737277 0 
vn 0.737277 -0.67559 0 
vn 0.707107 -0.707107 0 
vn 0.766044 -0.642788 0 
vn 0.737277 -0.67559 0 
vn 0.793353 -0.608761 0 
vn 0.766044 -0.642788 0 
vn 0.819152 -0.573576 0 
vn 0.793353 -0.608761 0 
vn 0.843391 -0.5373 0 
vn 0.819152 -0.573576 0 
vn 0.866025 -0.5 0 
vn 0.843391 -0.5373 0 
vn 0.887011 -0.461749 0 
vn 0.866025 -0.5 0 
vn 0.906308 -0.422618 0 
vn 0.887011 -0.461749 0 
vn 0.92388 -0.382683 0 
vn 0.906308 -0.422618 0 
vn 0.939693 -0.34202 0 
vn 0.92388 -0.382683 0 
vn 0.953717 -0.300706 0 
vn 0.939693 -0.34202 0 
vn 0.965926 -0.258819 0 
vn 0.953717 -0.300706 0 
vn 0.976296 -0.21644 0 
vn 0.965926 -0.258819 0 
vn 0.984808 -0.173648 0 
vn 0.976296 -0.21644 0 
vn 0.991445 -0.130526 0 
vn 0.984808 -0.173648 0 
vn 0.996195 -0.0871557 0 
vn 0.991445 -0.130526 0 
vn 0.999048 -0.0436194 0 
vn 0.996195 -0.0871557 0 
vn 0 0 1 
vn -1 0 0 
vn -0.999048 0.0436194 0 
vn -0.996195 0.0871557 0 
vn -0.991445 0.130526 0 
vn -0.984808 0.173648 0 
vn -0.976296 0.21644 0 
vn -0.965926 0.258819 0 
vn -0.953717 0.300706 0 
vn -0.939693 0.34202 0 
vn -0.92388 0.382683 0 
vn -0.906308 0.422618 0 
vn -0.887011 0.461749 0 
vn -0.866025 0.5 0 
vn -0.843391 0.5373 0 
vn -0.819152 0.573576 0 
vn -0.793353 0.608761 0 
vn -0.766044 0.642788 0 
vn -0.737277 0.67559 0 
vn -0.707107 0.707107 0 
vn -0.67559 0.737277 0 
vn -0.642788 0.766044 0 
vn -0.608761 0.793353 0 
vn -0.573576 0.819152 0 
vn -0.5373 0.843391 0 
vn -0.5 0.866025 0 
vn -0.461749 0.887011 0 
vn -0.422618 0.906308 0 
vn -0.382683 0.92388 0 
vn -0.34202 0.939693 0 
vn -0.300706 0.953717 0 
vn -0.258819 0.965926 0 
vn -0.21644 0.976296 0 
vn -0.173648 0.984808 0 
vn -0.130526 0.991445 0 
vn -0.0871557 0.996195 0 
vn -0.0436194 0.999048 0 
vn -6.12323e-17 1 0 
vn 0.0436194 0.999048 0 
vn 0.0871557 0.996195 0 
vn 0.130526 0.991445 0 
vn 0.173648 0.984808 0 
vn 0.21644 0.976296 0 
vn 0.258819 0.965926 0 
vn 0.300706 0.953717 0 
vn 0.34202 0.939693 0 
vn 0.382683 0.92388 0 
vn 0.422618 0.906308 0 
vn 0.461749 0.887011 0 
vn 0.5 0.866025 0 
vn 0.5373 0.843391 0 
vn 0.573576 0.819152 0 
vn 0.608761 0.793353 0 
vn 0.642788 0.766044 0 
vn 0.67559 0.737277 0 
vn 0.707107 0.707107 0 
vn 0.737277 0.67559 0 
vn 0.766044 0.642788 0 
vn 0.793353 0.608761 0 
vn 0.819152 0.573576 0 
vn 0.843391 0.5373 0 
vn 0.866025 0.5 0 
vn 0.887011 0.461749 0 
vn 0.906308 0.422618 0 
vn 0.92388 0.382683 0 
vn 0.939693 0.34202 0 
vn 0.953717 0.300706 0 
vn 0.965926 0.258819 0 
vn 0.976296 0.21644 0 
vn 0.984808 0.173648 0 
vn 0.991445 0.130526 0 
vn 0.996195 0.0871557 0 
vn 0.999048 0.0436194 0 
vn 1 1.22465e-16 0 
vn 0.999048 -0.0436194 0 
vn 0.996195 -0.0871557 0 
vn 0.991445 -0.130526 0 
vn 0.984808 -0.173648 0 
vn 0.976296 -0.21644 0 
vn 0.965926 -0.258819 0 
vn 0.953717 -0.300706 0 
vn 0.939693 -0.34202 0 
vn 0.92388 -0.382683 0 
vn 0.906308 -0.422618 0 
vn 0.887011 -0.461749 0 
vn 0.866025 -0.5 0 
vn 0.843391 -0.5373 0 
vn 0.819152 -0.573576 0 
vn 0.793353 -0.608761 0 
vn 0.766044 -0.642788 0 
vn 0.737277 -0.67559 0 
vn 0.707107 -0.707107 0 
vn 0.67559 -0.737277 0 
vn 0.642788 -0.766044 0 
vn 0.608761 -0.793353 0 
vn 0.573576 -0.819152 0 
vn 0.5373 -0.843391 0 
vn 0.5 -0.866025 0 
vn 0.461749 -0.887011 0 
vn 0.422618 -0.906308 0 
vn 0.382683 -0.92388 0 
vn 0.34202 -0.939693 0 
vn 0.300706 -0.953717 0 
vn 0.258819 -0.965926 0 
vn 0.21644 -0.976296 0 
vn 0.173648 -0.984808 0 
vn 0.130526 -0.991445 0 
vn 0.0871557 -0.996195 0 
vn 0.0436194 -0.999048 0 
vn 1.83697e-16 -1 0 
vn -0.0436194 -0.999048 0 
vn -0.0871557 -0.996195 0 
vn -0.130526 -0.991445 0 
vn -0.173648 -0.984808 0 
vn -0.21644 -0.976296 0 
vn -0.258819 -0.965926 0 
vn -0.300706 -0.953717 0 
vn -0.34202 -0.939693 0 
vn -0.382683 -0.92388 0 
vn -0.422618 -0.906308 0 
vn -0.461749 -0.887011 0 
vn -0.5 -0.866025 0 
vn -0.5373 -0.843391 0 
vn -0.573576 -0.819152 0 
vn -0.608761 -0.793353 0 
vn -0.642788 -0.766044 0 
vn -0.67559 -0.737277 0 
vn -0.707107 -0.707107 0 
vn -0.737277 -0.67559 0 
vn -0.766044 -0.642788 0 
vn -0.793353 -0.608761 0 
vn -0.819152 -0.573576 0 
vn -0.843391 -0.5373 0 
vn -0.866025 -0.5 0 
vn -0.887011 -0.461749 0 
vn -0.906308 -0.422618 0 
vn -0.92388 -0.382683 0 
vn -0.939693 -0.34202 0 
vn -0.953717 -0.300706 0 
vn -0.965926 -0.258819 0 
vn -0.976296 -0.21644 0 
vn -0.984808 -0.173648 0 
vn -0.991445 -0.130526 0 
vn -0.996195 -0.0871557 0 
vn -0.999048 -0.0436194 0 
vn 0 0 -1 
usemtl 0.615686_0.811765_0.929412_0.000000_0.000000
o mesh0
f 1//1 2//2 3//2 
f 4//3 1//1 5//4 
f 6//5 4//3 7//6 
f 8//7 6//5 9//8 
f 10//9 8//7 11//10 
f 12//11 10//9 13//12 
f 14//13 12//11 15//14 
f 16//15 14//13 17//16 
f 18//17 16//15 19//18 
f 20//19 18//17 21//20 
f 22//21 20//19 23//22 
f 24//23 22//21 25//24 
f 26//25 24//23 27//26 
f 28//27 26//25 29//28 
f 30//29 28//27 31//30 
f 32//31 30//29 33//32 
f 34//33 32//31 35//34 
f 36//35 34//33 37//36 
f 38//37 36//35 39//38 
f 40//39 38//37 41//40 
f 42//41 40//39 43//42 
f 44//43 42//41 45//44 
f 46//45 44//43 47//46 
f 48//47 46//45 49//48 
f 50//49 48//47 51//50 
f 52//51 50//49 53//52 
f 54//53 52//51 55//54 
f 56//55 54//53 57//56 
f 58//57 56//55 59//58 
f 60//59 58//57 61//60 
f 62//61 60//59 63//62 
f 64//63 62//61 65//64 
f 66//65 64//63 67//66 
f 68//67 66//65 69//68 
f 70//69 68//67 71//70 
f 72//71 70//69 73//72 
f 74//73 72//71 75//74 
f 76//75 74//73 77//76 
f 78//77 76//75 79//78 
f 80//79 78//77 81//80 
f 82//81 80//79 83//82 
f 84//83 82//81 85//84 
f 86//85 84//83 87//86 
f 88//87 86//85 89//88 
f 90//89 88//87 91//90 
f 92//91 90//89 93//92 
f 94//93 92//91 95//94 
f 96//95 94//93 97//96 
f 98//97 96//95 99//98 
f 100//99 98//97 101//100 
f 102//101 100//99 103//102 
f 104//103 102//101 105//104 
f 106//105 104//103 107//106 
f 108//107 106//105 109//108 
f 110//109 108//107 111//110 
f 112//111 110//109 113//112 
f 114//113 112//111 115//114 
f 116//115 114//113 117//116 
f 118//117 116//115 119//118 
f 120//119 118//117 121//120 
f 122//121 120//119 123//122 
f 124//123 122//121 125//124 
f 126//125 124//123 127//126 
f 128//127 126//125 129//128 
f 130//129 128//127 131//130 
f 132//131 130//129 133//132 
f 134//133 132//131 135//134 
f 136//135 134//133 137//136 
f 138//137 136//135 139//138 
f 140//139 138//137 141//140 
f 142//141 140//139 143//142 
f 144//143 142//141 145//144 
f 146//145 144//143 147//146 
f 148//147 146//145 149//148 
f 150//149 148//147 151//150 
f 152//151 150//149 153//152 
f 154//153 152//151 155//154 
f 156//155 154//153 157//156 
f 158//157 156//155 159//158 
f 160//159 158//157 161//160 
f 162//161 160//159 163//162 
f 164//163 162//161 165//164 
f 166//165 164//163 167//166 
f 168//167 166//165 169//168 
f 170//169 168//167 171//170 
f 172//171 170//169 173//172 
f 174//173 172//171 175//174 
f 176//175 174//173 177//176 
f 178//177 176//175 179//178 
f 180//179 178//177 181//180 
f 182//181 180//179 183//182 
f 184//183 182//181 185//184 
f 186//185 184//183 187//186 
f 188//187 186//185 189//188 
f 190//189 188//187 191//190 
f 192//191 190//189 193//192 
f 194//193 192//191 195//194 
f 196//195 194//193 197//196 
f 198//197 196//195 199//198 
f 200//199 198//197 201//200 
f 202//201 200//199 203//202 
f 204//203 202//201 205//204 
f 206//205 204//203 207//206 
f 208//207 206//205 209//208 
f 210//209 208//207 211//210 
f 212//211 210//209 213//212 
f 214//213 212//211 215//214 
f 216//215 214//213 217//216 
f 218//217 216//215 219//218 
f 220//219 218//217 221//220 
f 222//221 220//219 223//222 
f 224//223 222//221 225//224 
f 226//225 224//223 227//226 
f 228//227 226//225 229//228 
f 230//229 228//227 231//230 
f 232//231 230//229 233//232 
f 234//233 232//231 235//234 
f 236//235 234//233 237//236 
f 238//237 236//235 239//238 
f 240//239 238//237 241//240 
f 242//241 240//239 243//242 
f 244//243 242//241 245//244 
f 246//245 244//243 247//246 
f 248//247 246//245 249//248 
f 250//249 248//247 251//250 
f 252//251 250//249 253//252 
f 254//253 252//251 255//254 
f 256//255 254//253 257//256 
f 258//257 256//255 259//258 
f 260//259 258//257 261//260 
f 262//261 260//259 263//262 
f 264//263 262//261 265//264 
f 266//265 264//263 267//266 
f 268//267 266//265 269//268 
f 270//269 268//267 271//270 
f 272//271 270//269 273//272 
f 274//273 272//271 275//274 
f 276//275 274//273 277//276 
f 278//277 276//275 279//278 
f 280//279 278//277 281//280 
f 282//281 280//279 283//282 
f 284//283 282//281 285//284 
f 286//285 284//283 287//286 
f 2//2 286//285 288//285 
f 288//285 3//2 2//2 
f 287//286 288//285 286//285 
f 285//284 287//286 284//283 
f 283//282 285//284 282//281 
f 281//280 283//282 280//279 
f 279//278 281//280 278//277 
f 277//276 279//278 276//275 
f 275//274 277//276 274//273 
f 273//272 275//274 272//271 
f 271//270 273//272 270//269 
f 269//268 271//270 268//267 
f 267//266 269//268 266//265 
f 265//264 267//266 264//263 
f 263//262 265//264 262//261 
f 261//260 263//262 260//259 
f 259//258 261//260 258//257 
f 257//256 259//258 256//255 
f 255//254 257//256 254//253 
f 253//252 255//254 252//251 
f 251//250 253//252 250//249 
f 249//248 251//250 248//247 
f 247//246 249//248 246//245 
f 245//244 247//246 244//243 
f 243//242 245//244 242//241 
f 241//240 243//242 240//239 
f 239//238 241//240 238//237 
f 237//236 239//238 236//235 
f 235//234 237//236 234//233 
f 233//232 235//234 232//231 
f 231//230 233//232 230//229 
f 229//228 231//230 228//227 
f 227//226 229//228 226//225 
f 225//224 227//226 224//223 
f 223//222 225//224 222//221 
f 221//220 223//222 220//219 
f 219//218 221//220 218//217 
f 217//216 219//218 216//215 
f 215//214 217//216 214//213 
f 213//212 215//214 212//211 
f 211//210 213//212 210//209 
f 209//208 211//210 208//207 
f 207//206 209//208 206//205 
f 205//204 207//206 204//203 
f 203//202 205//204 202//201 
f 201//200 203//202 200//199 
f 199//198 201//200 198//197 
f 197//196 199//198 196//195 
f 195//194 197//196 194//193 
f 193//192 195//194 192//191 
f 191//190 193//192 190//189 
f 189//188 191//190 188//187 
f 187//186 189//188 186//185 
f 185//184 187//186 184//183 
f 183//182 185//184 182//181 
f 181//180 183//182 180//179 
f 179//178 181//180 178//177 
f 177//176 179//178 176//175 
f 175//174 177//176 174//173 
f 173//172 175//174 172//171 
f 171//170 173//172 170//169 
f 169//168 171//170 168//167 
f 167//166 169//168 166//165 
f 165//164 167//166 164//163 
f 163//162 165//164 162//161 
f 161//160 163//162 160//159 
f 159//158 161//160 158//157 
f 157//156 159//158 156//155 
f 155//154 157//156 154//153 
f 153//152 155//154 152//151 
f 151//150 153//152 150//149 
f 149//148 151//150 148//147 
f 147//146 149//148 146//145 
f 145//144 147//146 144//143 
f 143//142 145//144 142//141 
f 141//140 143//142 140//139 
f 139//138 141//140 138//137 
f 137//136 139//138 136//135 
f 135//134 137//136 134//133 
f 133//132 135//134 132//131 
f 131//130 133//132 130//129 
f 129//128 131//130 128//127 
f 127//126 129//128 126//125 
f 125//124 127//126 124//123 
f 123//122 125//124 122//121 
f 121//120 123//122 120//119 
f 119//118 121//120 118//117 
f 117//116 119//118 116//115 
f 115//114 117//116 114//113 
f 113//112 115//114 112//111 
f 111//110 113//112 110//109 
f 109//108 111//110 108//107 
f 107//106 109//108 106//105 
f 105//104 107//106 104//103 
f 103//102 105//104 102//101 
f 101//100 103//102 100//99 
f 99//98 101//100 98//97 
f 97//96 99//98 96//95 
f 95//94 97//96 94//93 
f 93//92 95//94 92//91 
f 91//90 93//92 90//89 
f 89//88 91//90 88//87 
f 87//86 89//88 86//85 
f 85//84 87//86 84//83 
f 83//82 85//84 82//81 
f 81//80 83//82 80//79 
f 79//78 81//80 78//77 
f 77//76 79//78 76//75 
f 75//74 77//76 74//73 
f 73//72 75//74 72//71 
f 71//70 73//72 70//69 
f 69//68 71//70 68//67 
f 67//66 69//68 66//65 
f 65//64 67//66 64//63 
f 63//62 65//64 62//61 
f 61//60 63//62 60//59 
f 59//58 61//60 58//57 
f 57//56 59//58 56//55 
f 55//54 57//56 54//53 
f 53//52 55//54 52//51 
f 51//50 53//52 50//49 
f 49//48 51//50 48//47 
f 47//46 49//48 46//45 
f 45//44 47//46 44//43 
f 43//42 45//44 42//41 
f 41//40 43//42 40//39 
f 39//38 41//40 38//37 
f 37//36 39//38 36//35 
f 35//34 37//36 34//33 
f 33//32 35//34 32//31 
f 31//30 33//32 30//29 
f 29//28 31//30 28//27 
f 27//26 29//28 26//25 
f 25//24 27//26 24//23 
f 23//22 25//24 22//21 
f 21//20 23//22 20//19 
f 19//18 21//20 18//17 
f 17//16 19//18 16//15 
f 15//14 17//16 14//13 
f 13//12 15//14 12//11 
f 11//10 13//12 10//9 
f 9//8 11//10 8//7 
f 7//6 9//8 6//5 
f 5//4 7//6 4//3 
f 3//2 5//4 1//1 
o mesh1
f 289//287 13//287 11//287 
f 289//287 290//287 15//287 
f 291//287 283//287 281//287 
f 291//287 292//287 285//287 
f 293//287 3//287 288//287 
f 294//287 5//287 3//287 
f 295//287 11//287 9//287 
f 15//287 13//287 289//287 
f 296//287 267//287 265//287 
f 297//287 269//287 267//287 
f 285//287 283//287 291//287 
f 292//287 298//287 287//287 
f 3//287 293//287 294//287 
f 294//287 299//287 7//287 
f 300//287 9//287 7//287 
f 11//287 295//287 289//287 
f 267//287 296//287 297//287 
f 297//287 301//287 271//287 
f 302//287 273//287 271//287 
f 302//287 303//287 275//287 
f 304//287 281//287 279//287 
f 287//287 285//287 292//287 
f 7//287 5//287 294//287 
f 9//287 300//287 295//287 
f 305//287 23//287 21//287 
f 306//287 25//287 23//287 
f 307//287 27//287 25//287 
f 307//287 308//287 29//287 
f 271//287 269//287 297//287 
f 275//287 273//287 302//287 
f 309//287 277//287 275//287 
f 309//287 310//287 279//287 
f 281//287 304//287 291//287 
f 298//287 311//287 288//287 
f 7//287 299//287 300//287 
f 290//287 312//287 17//287 
f 313//287 19//287 17//287 
f 313//287 314//287 21//287 
f 23//287 305//287 306//287 
f 29//287 27//287 307//287 
f 315//287 33//287 31//287 
f 315//287 316//287 35//287 
f 317//287 157//287 155//287 
f 317//287 318//287 159//287 
f 319//287 263//287 261//287 
f 319//287 320//287 265//287 
f 271//287 301//287 302//287 
f 279//287 277//287 309//287 
f 288//287 287//287 298//287 
f 17//287 15//287 290//287 
f 21//287 19//287 313//287 
f 25//287 306//287 307//287 
f 35//287 33//287 315//287 
f 316//287 321//287 37//287 
f 321//287 322//287 39//287 
f 322//287 323//287 41//287 
f 324//287 325//287 45//287 
f 325//287 326//287 47//287 
f 327//287 155//287 153//287 
f 159//287 157//287 317//287 
f 328//287 253//287 251//287 
f 328//287 329//287 255//287 
f 330//287 257//287 255//287 
f 330//287 331//287 259//287 
f 331//287 332//287 261//287 
f 265//287 263//287 319//287 
f 275//287 303//287 309//287 
f 288//287 311//287 293//287 
f 21//287 314//287 305//287 
f 333//287 31//287 29//287 
f 37//287 35//287 316//287 
f 41//287 39//287 322//287 
f 324//287 43//287 41//287 
f 47//287 45//287 325//287 
f 334//287 57//287 55//287 
f 334//287 335//287 59//287 
f 336//287 337//287 149//287 
f 337//287 338//287 151//287 
f 339//287 153//287 151//287 
f 155//287 327//287 317//287 
f 340//287 165//287 163//287 
f 340//287 341//287 167//287 
f 342//287 343//287 171//287 
f 344//287 173//287 171//287 
f 345//287 175//287 173//287 
f 345//287 346//287 177//287 
f 347//287 187//287 185//287 
f 348//287 189//287 187//287 
f 349//287 191//287 189//287 
f 349//287 350//287 193//287 
f 351//287 201//287 199//287 
f 352//287 203//287 201//287 
f 353//287 211//287 209//287 
f 353//287 354//287 213//287 
f 355//287 231//287 229//287 
f 355//287 356//287 233//287 
f 357//287 239//287 237//287 
f 357//287 358//287 241//287 
f 358//287 359//287 243//287 
f 360//287 245//287 243//287 
f 361//287 251//287 249//287 
f 255//287 253//287 328//287 
f 259//287 257//287 330//287 
f 261//287 332//287 319//287 
f 279//287 310//287 304//287 
f 29//287 308//287 333//287 
f 39//287 37//287 321//287 
f 45//287 43//287 324//287 
f 362//287 49//287 47//287 
f 362//287 363//287 51//287 
f 364//287 53//287 51//287 
f 364//287 365//287 55//287 
f 59//287 57//287 334//287 
f 335//287 366//287 61//287 
f 366//287 367//287 63//287 
f 367//287 368//287 65//287 
f 151//287 149//287 337//287 
f 153//287 339//287 327//287 
f 369//287 161//287 159//287 
f 369//287 370//287 163//287 
f 167//287 165//287 340//287 
f 341//287 342//287 169//287 
f 171//287 343//287 344//287 
f 177//287 175//287 345//287 
f 371//287 183//287 181//287 
f 371//287 372//287 185//287 
f 187//287 347//287 348//287 
f 193//287 191//287 349//287 
f 201//287 351//287 352//287 
f 373//287 205//287 203//287 
f 374//287 207//287 205//287 
f 374//287 375//287 209//287 
f 213//287 211//287 353//287 
f 354//287 376//287 215//287 
f 377//287 227//287 225//287 
f 377//287 378//287 229//287 
f 233//287 231//287 355//287 
f 356//287 379//287 235//287 
f 241//287 239//287 357//287 
f 243//287 359//287 360//287 
f 380//287 247//287 245//287 
f 380//287 381//287 249//287 
f 251//287 361//287 328//287 
f 261//287 259//287 331//287 
f 17//287 312//287 313//287 
f 41//287 323//287 324//287 
f 51//287 49//287 362//287 
f 55//287 53//287 364//287 
f 61//287 59//287 335//287 
f 65//287 63//287 367//287 
f 382//287 143//287 141//287 
f 382//287 383//287 145//287 
f 151//287 338//287 339//287 
f 163//287 161//287 369//287 
f 169//287 167//287 341//287 
f 173//287 344//287 345//287 
f 384//287 179//287 177//287 
f 384//287 385//287 181//287 
f 185//287 183//287 371//287 
f 189//287 348//287 349//287 
f 203//287 352//287 373//287 
f 209//287 207//287 374//287 
f 215//287 213//287 354//287 
f 376//287 386//287 217//287 
f 387//287 219//287 217//287 
f 387//287 388//287 221//287 
f 389//287 225//287 223//287 
f 229//287 227//287 377//287 
f 235//287 233//287 356//287 
f 379//287 390//287 237//287 
f 243//287 241//287 358//287 
f 249//287 247//287 380//287 
f 255//287 329//287 330//287 
f 31//287 333//287 315//287 
f 51//287 363//287 364//287 
f 63//287 61//287 366//287 
f 391//287 67//287 65//287 
f 391//287 392//287 69//287 
f 393//287 115//287 113//287 
f 393//287 394//287 117//287 
f 395//287 137//287 135//287 
f 396//287 139//287 137//287 
f 397//287 141//287 139//287 
f 145//287 143//287 382//287 
f 159//287 318//287 369//287 
f 171//287 169//287 342//287 
f 181//287 179//287 384//287 
f 185//287 372//287 347//287 
f 398//287 195//287 193//287 
f 398//287 399//287 197//287 
f 399//287 400//287 199//287 
f 205//287 373//287 374//287 
f 217//287 215//287 376//287 
f 221//287 219//287 387//287 
f 401//287 223//287 221//287 
f 225//287 389//287 377//287 
f 237//287 235//287 379//287 
f 245//287 360//287 380//287 
f 265//287 320//287 296//287 
f 55//287 365//287 334//287 
f 69//287 67//287 391//287 
f 392//287 402//287 71//287 
f 403//287 113//287 111//287 
f 117//287 115//287 393//287 
f 404//287 119//287 117//287 
f 404//287 405//287 121//287 
f 406//287 125//287 123//287 
f 406//287 407//287 127//287 
f 408//287 129//287 127//287 
f 409//287 131//287 129//287 
f 410//287 133//287 131//287 
f 410//287 411//287 135//287 
f 137//287 395//287 396//287 
f 141//287 397//287 382//287 
f 163//287 370//287 340//287 
f 181//287 385//287 371//287 
f 197//287 195//287 398//287 
f 199//287 400//287 351//287 
f 217//287 386//287 387//287 
f 223//287 401//287 389//287 
f 237//287 390//287 357//287 
f 47//287 326//287 362//287 
f 71//287 69//287 392//287 
f 402//287 412//287 73//287 
f 413//287 81//287 79//287 
f 414//287 83//287 81//287 
f 415//287 85//287 83//287 
f 415//287 416//287 87//287 
f 417//287 93//287 91//287 
f 417//287 418//287 95//287 
f 113//287 403//287 393//287 
f 121//287 119//287 404//287 
f 419//287 123//287 121//287 
f 127//287 125//287 406//287 
f 129//287 408//287 409//287 
f 135//287 133//287 410//287 
f 139//287 396//287 397//287 
f 336//287 147//287 145//287 
f 177//287 346//287 384//287 
f 199//287 197//287 399//287 
f 221//287 388//287 401//287 
f 249//287 381//287 361//287 
f 73//287 71//287 402//287 
f 420//287 75//287 73//287 
f 421//287 77//287 75//287 
f 421//287 422//287 79//287 
f 81//287 413//287 414//287 
f 87//287 85//287 415//287 
f 416//287 423//287 89//287 
f 423//287 424//287 91//287 
f 95//287 93//287 417//287 
f 418//287 425//287 97//287 
f 426//287 99//287 97//287 
f 426//287 427//287 101//287 
f 117//287 394//287 404//287 
f 123//287 419//287 406//287 
f 131//287 409//287 410//287 
f 145//287 383//287 336//287 
f 193//287 350//287 398//287 
f 229//287 378//287 355//287 
f 73//287 412//287 420//287 
f 79//287 77//287 421//287 
f 83//287 414//287 415//287 
f 91//287 89//287 423//287 
f 97//287 95//287 418//287 
f 101//287 99//287 426//287 
f 428//287 103//287 101//287 
f 428//287 429//287 105//287 
f 430//287 109//287 107//287 
f 430//287 431//287 111//287 
f 121//287 405//287 419//287 
f 135//287 411//287 395//287 
f 209//287 375//287 353//287 
f 75//287 420//287 421//287 
f 89//287 87//287 416//287 
f 97//287 425//287 426//287 
f 105//287 103//287 428//287 
f 429//287 432//287 107//287 
f 111//287 109//287 430//287 
f 127//287 407//287 408//287 
f 65//287 368//287 391//287 
f 91//287 424//287 417//287 
f 107//287 105//287 429//287 
f 111//287 431//287 403//287 
f 79//287 422//287 413//287 
f 107//287 432//287 430//287 
f 101//287 427//287 428//287 
f 149//287 147//287 336//287 
o mesh2
f 433//288 293//288 311//289 
f 434//289 311//289 298//290 
f 435//290 298//290 292//291 
f 436//291 292//291 291//292 
f 437//292 291//292 304//293 
f 438//293 304//293 310//294 
f 439//294 310//294 309//295 
f 440//295 309//295 303//296 
f 441//296 303//296 302//297 
f 442//297 302//297 301//298 
f 443//298 301//298 297//299 
f 444//299 297//299 296//300 
f 445//300 296//300 320//301 
f 446//301 320//301 319//302 
f 447//302 319//302 332//303 
f 448//303 332//303 331//304 
f 449//304 331//304 330//305 
f 450//305 330//305 329//306 
f 451//306 329//306 328//307 
f 452//307 328//307 361//308 
f 453//308 361//308 381//309 
f 454//309 381//309 380//310 
f 455//310 380//310 360//311 
f 456//311 360//311 359//312 
f 457//312 359//312 358//313 
f 458//313 358//313 357//314 
f 459//314 357//314 390//315 
f 460//315 390//315 379//316 
f 461//316 379//316 356//317 
f 462//317 356//317 355//318 
f 463//318 355//318 378//319 
f 464//319 378//319 377//320 
f 465//320 377//320 389//321 
f 466//321 389//321 401//322 
f 467//322 401//322 388//323 
f 468//323 388//323 387//324 
f 469//324 387//324 386//325 
f 470//325 386//325 376//326 
f 471//326 376//326 354//327 
f 472//327 354//327 353//328 
f 473//328 353//328 375//329 
f 474//329 375//329 374//330 
f 475//330 374//330 373//331 
f 476//331 373//331 352//332 
f 477//332 352//332 351//333 
f 478//333 351//333 400//334 
f 479//334 400//334 399//335 
f 480//335 399//335 398//336 
f 481//336 398//336 350//337 
f 482//337 350//337 349//338 
f 483//338 349//338 348//339 
f 484//339 348//339 347//340 
f 485//340 347//340 372//341 
f 486//341 372//341 371//342 
f 487//342 371//342 385//343 
f 488//343 385//343 384//344 
f 489//344 384//344 346//345 
f 490//345 346//345 345//346 
f 491//346 345//346 344//347 
f 492//347 344//347 343//348 
f 493//348 343//348 342//349 
f 494//349 342//349 341//350 
f 495//350 341//350 340//351 
f 496//351 340//351 370//352 
f 497//352 370//352 369//353 
f 498//353 369//353 318//354 
f 499//354 318//354 317//355 
f 500//355 317//355 327//356 
f 501//356 327//356 339//357 
f 502//357 339//357 338//358 
f 503//358 338//358 337//359 
f 504//359 337//359 336//360 
f 505//360 336//360 383//361 
f 506//361 383//361 382//362 
f 507//362 382//362 397//363 
f 508//363 397//363 396//364 
f 509//364 396//364 395//365 
f 510//365 395//365 411//366 
f 511//366 411//366 410//367 
f 512//367 410//367 409//368 
f 513//368 409//368 408//369 
f 514//369 408//369 407//370 
f 515//370 407//370 406//371 
f 516//371 406//371 419//372 
f 517//372 419//372 405//373 
f 518//373 405//373 404//374 
f 519//374 404//374 394//375 
f 520//375 394//375 393//376 
f 521//376 393//376 403//377 
f 522//377 403//377 431//378 
f 523//378 431//378 430//379 
f 524//379 430//379 432//380 
f 525//380 432//380 429//381 
f 526//381 429//381 428//382 
f 527//382 428//382 427//383 
f 528//383 427//383 426//384 
f 529//384 426//384 425//385 
f 530//385 425//385 418//386 
f 531//386 418//386 417//387 
f 532//387 417//387 424//388 
f 533//388 424//388 423//389 
f 534//389 423//389 416//390 
f 535//390 416//390 415//391 
f 536//391 415//391 414//392 
f 537//392 414//392 413//393 
f 538//393 413//393 422//394 
f 539//394 422//394 421//395 
f 540//395 421//395 420//396 
f 541//396 420//396 412//397 
f 542//397 412//397 402//398 
f 543//398 402//398 392//399 
f 544//399 392//399 391//400 
f 545//400 391//400 368//401 
f 546//401 368//401 367//402 
f 547//402 367//402 366//403 
f 548//403 366//403 335//404 
f 549//404 335//404 334//405 
f 550//405 334//405 365//406 
f 551//406 365//406 364//407 
f 552//407 364//407 363//408 
f 553//408 363//408 362//409 
f 554//409 362//409 326//410 
f 555//410 326//410 325//411 
f 556//411 325//411 324//412 
f 557//412 324//412 323//413 
f 558//413 323//413 322//414 
f 559//414 322//414 321//415 
f 560//415 321//415 316//416 
f 561//416 316//416 315//417 
f 562//417 315//417 333//418 
f 563//418 333//418 308//419 
f 564//419 308//419 307//420 
f 565//420 307//420 306//421 
f 566//421 306//421 305//422 
f 567//422 305//422 314//423 
f 568//423 314//423 313//424 
f 569//424 313//424 312//425 
f 570//425 312//425 290//426 
f 571//426 290//426 289//427 
f 572//427 289//427 295//428 
f 573//428 295//428 300//429 
f 574//429 300//429 299//430 
f 575//430 299//430 294//431 
f 576//431 294//431 293//288 
f 293//288 433//288 576//431 
f 294//431 576//431 575//430 
f 299//430 575//430 574//429 
f 300//429 574//429 573//428 
f 295//428 573//428 572//427 
f 289//427 572//427 571//426 
f 290//426 571//426 570//425 
f 312//425 570//425 569//424 
f 313//424 569//424 568//423 
f 314//423 568//423 567//422 
f 305//422 567//422 566//421 
f 306//421 566//421 565//420 
f 307//420 565//420 564//419 
f 308//419 564//419 563//418 
f 333//418 563//418 562//417 
f 315//417 562//417 561//416 
f 316//416 561//416 560//415 
f 321//415 560//415 559//414 
f 322//414 559//414 558//413 
f 323//413 558//413 557//412 
f 324//412 557//412 556//411 
f 325//411 556//411 555//410 
f 326//410 555//410 554//409 
f 362//409 554//409 553//408 
f 363//408 553//408 552//407 
f 364//407 552//407 551//406 
f 365//406 551//406 550//405 
f 334//405 550//405 549//404 
f 335//404 549//404 548//403 
f 366//403 548//403 547//402 
f 367//402 547//402 546//401 
f 368//401 546//401 545//400 
f 391//400 545//400 544//399 
f 392//399 544//399 543//398 
f 402//398 543//398 542//397 
f 412//397 542//397 541//396 
f 420//396 541//396 540//395 
f 421//395 540//395 539//394 
f 422//394 539//394 538//393 
f 413//393 538//393 537//392 
f 414//392 537//392 536//391 
f 415//391 536//391 535//390 
f 416//390 535//390 534//389 
f 423//389 534//389 533//388 
f 424//388 533//388 532//387 
f 417//387 532//387 531//386 
f 418//386 531//386 530//385 
f 425//385 530//385 529//384 
f 426//384 529//384 528//383 
f 427//383 528//383 527//382 
f 428//382 527//382 526//381 
f 429//381 526//381 525//380 
f 432//380 525//380 524//379 
f 430//379 524//379 523//378 
f 431//378 523//378 522//377 
f 403//377 522//377 521//376 
f 393//376 521//376 520//375 
f 394//375 520//375 519//374 
f 404//374 519//374 518//373 
f 405//373 518//373 517//372 
f 419//372 517//372 516//371 
f 406//371 516//371 515//370 
f 407//370 515//370 514//369 
f 408//369 514//369 513//368 
f 409//368 513//368 512//367 
f 410//367 512//367 511//366 
f 411//366 511//366 510//365 
f 395//365 510//365 509//364 
f 396//364 509//364 508//363 
f 397//363 508//363 507//362 
f 382//362 507//362 506//361 
f 383//361 506//361 505//360 
f 336//360 505//360 504//359 
f 337//359 504//359 503//358 
f 338//358 503//358 502//357 
f 339//357 502//357 501//356 
f 327//356 501//356 500//355 
f 317//355 500//355 499//354 
f 318//354 499//354 498//353 
f 369//353 498//353 497//352 
f 370//352 497//352 496//351 
f 340//351 496//351 495//350 
f 341//350 495//350 494//349 
f 342//349 494//349 493//348 
f 343//348 493//348 492//347 
f 344//347 492//347 491//346 
f 345//346 491//346 490//345 
f 346//345 490//345 489//344 
f 384//344 489//344 488//343 
f 385//343 488//343 487//342 
f 371//342 487//342 486//341 
f 372//341 486//341 485//340 
f 347//340 485//340 484//339 
f 348//339 484//339 483//338 
f 349//338 483//338 482//337 
f 350//337 482//337 481//336 
f 398//336 481//336 480//335 
f 399//335 480//335 479//334 
f 400//334 479//334 478//333 
f 351//333 478//333 477//332 
f 352//332 477//332 476//331 
f 373//331 476//331 475//330 
f 374//330 475//330 474//329 
f 375//329 474//329 473//328 
f 353//328 473//328 472//327 
f 354//327 472//327 471//326 
f 376//326 471//326 470//325 
f 386//325 470//325 469//324 
f 387//324 469//324 468//323 
f 388//323 468//323 467//322 
f 401//322 467//322 466//321 
f 389//321 466//321 465//320 
f 377//320 465//320 464//319 
f 378//319 464//319 463//318 
f 355//318 463//318 462//317 
f 356//317 462//317 461//316 
f 379//316 461//316 460//315 
f 390//315 460//315 459//314 
f 357//314 459//314 458//313 
f 358//313 458//313 457//312 
f 359//312 457//312 456//311 
f 360//311 456//311 455//310 
f 380//310 455//310 454//309 
f 381//309 454//309 453//308 
f 361//308 453//308 452//307 
f 328//307 452//307 451//306 
f 329//306 451//306 450//305 
f 330//305 450//305 449//304 
f 331//304 449//304 448//303 
f 332//303 448//303 447//302 
f 319//302 447//302 446//301 
f 320//301 446//301 445//300 
f 296//300 445//300 444//299 
f 297//299 444//299 443//298 
f 301//298 443//298 442//297 
f 302//297 442//297 441//296 
f 303//296 441//296 440//295 
f 309//295 440//295 439//294 
f 310//294 439//294 438//293 
f 304//293 438//293 437//292 
f 291//292 437//292 436//291 
f 292//291 436//291 435//290 
f 298//290 435//290 434//289 
f 311//289 434//289 433//288 
o mesh3
f 483//432 188//432 190//432 
f 483//432 484//432 186//432 
f 186//432 188//432 483//432 
f 484//432 485//432 184//432 
f 491//432 172//432 174//432 
f 491//432 492//432 170//432 
f 500//432 154//432 156//432 
f 500//432 501//432 152//432 
f 184//432 186//432 484//432 
f 485//432 486//432 182//432 
f 487//432 180//432 182//432 
f 487//432 488//432 178//432 
f 170//432 172//432 491//432 
f 492//432 493//432 168//432 
f 495//432 164//432 166//432 
f 496//432 162//432 164//432 
f 152//432 154//432 500//432 
f 501//432 502//432 150//432 
f 437//432 280//432 282//432 
f 437//432 438//432 278//432 
f 182//432 184//432 485//432 
f 178//432 180//432 487//432 
f 489//432 176//432 178//432 
f 489//432 490//432 174//432 
f 168//432 170//432 492//432 
f 494//432 166//432 168//432 
f 164//432 495//432 496//432 
f 496//432 497//432 160//432 
f 150//432 152//432 501//432 
f 502//432 503//432 148//432 
f 507//432 140//432 142//432 
f 507//432 508//432 138//432 
f 436//432 282//432 284//432 
f 278//432 280//432 437//432 
f 444//432 445//432 264//432 
f 445//432 446//432 262//432 
f 182//432 486//432 487//432 
f 174//432 176//432 489//432 
f 168//432 493//432 494//432 
f 160//432 162//432 496//432 
f 148//432 150//432 502//432 
f 504//432 146//432 148//432 
f 505//432 144//432 146//432 
f 505//432 506//432 142//432 
f 138//432 140//432 507//432 
f 508//432 509//432 136//432 
f 509//432 510//432 134//432 
f 510//432 511//432 132//432 
f 435//432 284//432 286//432 
f 282//432 436//432 437//432 
f 442//432 270//432 272//432 
f 442//432 443//432 268//432 
f 444//432 266//432 268//432 
f 262//432 264//432 445//432 
f 447//432 260//432 262//432 
f 447//432 448//432 258//432 
f 475//432 204//432 206//432 
f 475//432 476//432 202//432 
f 178//432 488//432 489//432 
f 166//432 494//432 495//432 
f 498//432 158//432 160//432 
f 498//432 499//432 156//432 
f 148//432 503//432 504//432 
f 142//432 144//432 505//432 
f 136//432 138//432 508//432 
f 132//432 134//432 510//432 
f 521//432 112//432 114//432 
f 521//432 522//432 110//432 
f 562//432 30//432 32//432 
f 562//432 563//432 28//432 
f 565//432 24//432 26//432 
f 565//432 566//432 22//432 
f 566//432 567//432 20//432 
f 567//432 568//432 18//432 
f 572//432 10//432 12//432 
f 572//432 573//432 8//432 
f 284//432 435//432 436//432 
f 438//432 439//432 276//432 
f 440//432 274//432 276//432 
f 440//432 441//432 272//432 
f 268//432 270//432 442//432 
f 264//432 266//432 444//432 
f 258//432 260//432 447//432 
f 449//432 256//432 258//432 
f 450//432 254//432 256//432 
f 450//432 451//432 252//432 
f 452//432 250//432 252//432 
f 452//432 453//432 248//432 
f 456//432 457//432 240//432 
f 458//432 238//432 240//432 
f 459//432 236//432 238//432 
f 459//432 460//432 234//432 
f 465//432 224//432 226//432 
f 465//432 466//432 222//432 
f 202//432 204//432 475//432 
f 476//432 477//432 200//432 
f 477//432 478//432 198//432 
f 478//432 479//432 196//432 
f 174//432 490//432 491//432 
f 156//432 158//432 498//432 
f 146//432 504//432 505//432 
f 134//432 136//432 509//432 
f 512//432 130//432 132//432 
f 512//432 513//432 128//432 
f 513//432 514//432 126//432 
f 514//432 515//432 124//432 
f 516//432 122//432 124//432 
f 516//432 517//432 120//432 
f 519//432 116//432 118//432 
f 519//432 520//432 114//432 
f 110//432 112//432 521//432 
f 522//432 523//432 108//432 
f 556//432 42//432 44//432 
f 557//432 40//432 42//432 
f 559//432 36//432 38//432 
f 560//432 34//432 36//432 
f 561//432 32//432 34//432 
f 28//432 30//432 562//432 
f 22//432 24//432 565//432 
f 18//432 20//432 567//432 
f 569//432 16//432 18//432 
f 569//432 570//432 14//432 
f 8//432 10//432 572//432 
f 573//432 574//432 6//432 
f 433//432 434//432 286//432 
f 276//432 278//432 438//432 
f 272//432 274//432 440//432 
f 268//432 443//432 444//432 
f 258//432 448//432 449//432 
f 252//432 254//432 450//432 
f 248//432 250//432 452//432 
f 453//432 454//432 246//432 
f 455//432 244//432 246//432 
f 455//432 456//432 242//432 
f 240//432 457//432 458//432 
f 234//432 236//432 459//432 
f 461//432 232//432 234//432 
f 462//432 230//432 232//432 
f 463//432 228//432 230//432 
f 463//432 464//432 226//432 
f 222//432 224//432 465//432 
f 466//432 467//432 220//432 
f 473//432 208//432 210//432 
f 473//432 474//432 206//432 
f 200//432 202//432 476//432 
f 196//432 198//432 478//432 
f 160//432 497//432 498//432 
f 142//432 506//432 507//432 
f 128//432 130//432 512//432 
f 124//432 126//432 514//432 
f 120//432 122//432 516//432 
f 517//432 518//432 118//432 
f 114//432 116//432 519//432 
f 108//432 110//432 522//432 
f 550//432 54//432 56//432 
f 550//432 551//432 52//432 
f 42//432 556//432 557//432 
f 557//432 558//432 38//432 
f 36//432 559//432 560//432 
f 32//432 561//432 562//432 
f 20//432 22//432 566//432 
f 14//432 16//432 569//432 
f 6//432 8//432 573//432 
f 574//432 575//432 4//432 
f 286//432 434//432 435//432 
f 272//432 441//432 442//432 
f 256//432 449//432 450//432 
f 246//432 248//432 453//432 
f 242//432 244//432 455//432 
f 238//432 458//432 459//432 
f 232//432 461//432 462//432 
f 226//432 228//432 463//432 
f 220//432 222//432 466//432 
f 467//432 468//432 218//432 
f 469//432 216//432 218//432 
f 469//432 470//432 214//432 
f 472//432 210//432 212//432 
f 206//432 208//432 473//432 
f 198//432 200//432 477//432 
f 480//432 194//432 196//432 
f 481//432 192//432 194//432 
f 481//432 482//432 190//432 
f 156//432 499//432 500//432 
f 126//432 128//432 513//432 
f 118//432 120//432 517//432 
f 114//432 520//432 521//432 
f 545//432 64//432 66//432 
f 545//432 546//432 62//432 
f 547//432 60//432 62//432 
f 548//432 58//432 60//432 
f 549//432 56//432 58//432 
f 52//432 54//432 550//432 
f 552//432 50//432 52//432 
f 552//432 553//432 48//432 
f 554//432 46//432 48//432 
f 554//432 555//432 44//432 
f 38//432 40//432 557//432 
f 34//432 560//432 561//432 
f 563//432 564//432 26//432 
f 18//432 568//432 569//432 
f 571//432 12//432 14//432 
f 4//432 6//432 574//432 
f 576//432 1//432 4//432 
f 576//432 433//432 2//432 
f 276//432 439//432 440//432 
f 252//432 451//432 452//432 
f 240//432 242//432 456//432 
f 230//432 462//432 463//432 
f 218//432 220//432 467//432 
f 214//432 216//432 469//432 
f 471//432 212//432 214//432 
f 210//432 472//432 473//432 
f 196//432 479//432 480//432 
f 190//432 192//432 481//432 
f 132//432 511//432 512//432 
f 118//432 518//432 519//432 
f 532//432 90//432 92//432 
f 532//432 533//432 88//432 
f 536//432 82//432 84//432 
f 536//432 537//432 80//432 
f 537//432 538//432 78//432 
f 538//432 539//432 76//432 
f 540//432 74//432 76//432 
f 540//432 541//432 72//432 
f 544//432 66//432 68//432 
f 62//432 64//432 545//432 
f 60//432 547//432 548//432 
f 56//432 549//432 550//432 
f 48//432 50//432 552//432 
f 44//432 46//432 554//432 
f 38//432 558//432 559//432 
f 26//432 564//432 565//432 
f 12//432 571//432 572//432 
f 2//432 1//432 576//432 
f 262//432 446//432 447//432 
f 234//432 460//432 461//432 
f 218//432 468//432 469//432 
f 212//432 471//432 472//432 
f 194//432 480//432 481//432 
f 124//432 515//432 516//432 
f 524//432 106//432 108//432 
f 524//432 525//432 104//432 
f 529//432 96//432 98//432 
f 529//432 530//432 94//432 
f 531//432 92//432 94//432 
f 88//432 90//432 532//432 
f 533//432 534//432 86//432 
f 535//432 84//432 86//432 
f 80//432 82//432 536//432 
f 76//432 78//432 538//432 
f 72//432 74//432 540//432 
f 541//432 542//432 70//432 
f 543//432 68//432 70//432 
f 66//432 544//432 545//432 
f 58//432 548//432 549//432 
f 48//432 553//432 554//432 
f 26//432 28//432 563//432 
f 4//432 575//432 576//432 
f 246//432 454//432 455//432 
f 214//432 470//432 471//432 
f 190//432 482//432 483//432 
f 104//432 106//432 524//432 
f 527//432 100//432 102//432 
f 527//432 528//432 98//432 
f 94//432 96//432 529//432 
f 92//432 531//432 532//432 
f 86//432 534//432 535//432 
f 78//432 80//432 537//432 
f 70//432 72//432 541//432 
f 68//432 543//432 544//432 
f 52//432 551//432 552//432 
f 14//432 570//432 571//432 
f 226//432 464//432 465//432 
f 108//432 523//432 524//432 
f 526//432 102//432 104//432 
f 98//432 100//432 527//432 
f 94//432 530//432 531//432 
f 84//432 535//432 536//432 
f 70//432 542//432 543//432 
f 44//432 555//432 556//432 
f 206//432 474//432 475//432 
f 102//432 526//432 527//432 
f 86//432 88//432 533//432 
f 62//432 546//432 547//432 
f 104//432 525//432 526//432 
f 76//432 539//432 540//432 
f 98//432 528//432 529//432 
f 286//432 2//432 433//432 
